<svg width="19" height="27" viewBox="0 0 19 27" fill="none" xmlns="http://www.w3.org/2000/svg">
<path d="M14.3827 8.78876L17.2108 3.42789C16.8739 3.45435 16.5688 3.62497 16.3152 3.84057C16.2174 3.9239 16.1303 4.01384 16.0497 4.10776C15.9599 3.83528 15.6732 3.65143 15.3575 3.73079C15.1554 3.78105 14.9943 3.94639 14.9467 4.14876C14.8582 4.52573 15.1422 4.86169 15.5041 4.86169C15.516 4.86169 15.4011 5.10242 15.31 5.24395C15.0114 5.70689 14.668 6.00317 14.174 6.00317C13.5175 6.00317 12.9852 5.47013 12.9852 4.81275C12.9852 4.62228 13.0195 4.32335 13.1542 4.04956C13.211 3.93316 13.3114 3.83925 13.4343 3.80089C13.7051 3.71756 13.9019 3.46493 13.9019 3.16732C13.9019 2.75464 13.5254 2.42926 13.0974 2.51788C12.8399 2.57079 12.6351 2.78374 12.5876 3.04299C12.5598 3.19774 12.5849 3.34324 12.6483 3.46757C12.7091 3.58529 12.7329 3.72021 12.6998 3.84983C12.5136 4.56937 11.9522 5.12491 11.3116 5.11565C10.169 5.09845 9.82686 4.20696 9.79252 3.46757C9.95367 3.54297 10.1412 3.57206 10.3394 3.52842C10.6894 3.45302 10.9628 3.15409 11.0051 2.79697C11.0659 2.29831 10.6987 1.87108 10.2218 1.83405C10.2258 1.77982 10.2284 1.72559 10.2284 1.67136C10.2284 1.59067 10.2245 1.51263 10.2152 1.43459C10.1214 0.565585 8.87581 0.565585 8.7807 1.43459C8.77278 1.51263 8.76749 1.59199 8.76749 1.67136C8.76749 1.72559 8.77013 1.77982 8.7741 1.83405C8.29725 1.87108 7.93135 2.29831 7.99079 2.79697C8.03438 3.15277 8.30649 3.45302 8.65653 3.52842C8.85467 3.57074 9.04224 3.54297 9.20339 3.46757C9.16905 4.20696 8.82693 5.09845 7.68435 5.11565C7.0437 5.12491 6.48099 4.56937 6.29607 3.84983C6.26304 3.72153 6.28682 3.58661 6.34758 3.46757C6.41098 3.34324 6.43608 3.19774 6.40835 3.04299C6.36079 2.78374 6.15605 2.57079 5.89847 2.51788C5.4705 2.42926 5.09404 2.75464 5.09404 3.16732C5.09404 3.46625 5.29085 3.71756 5.56164 3.80089C5.68449 3.83925 5.78487 3.93316 5.84167 4.04956C5.97641 4.32203 6.01075 4.62228 6.01075 4.81275C6.01075 5.47013 5.47842 6.00317 4.82193 6.00317C4.32791 6.00317 3.98447 5.70689 3.68595 5.24395C3.5948 5.10242 3.47988 4.86169 3.49177 4.86169C3.8537 4.86169 4.1377 4.52573 4.0492 4.14876C4.00164 3.94639 3.84049 3.78105 3.63839 3.73079C3.3227 3.65275 3.03606 3.83528 2.94623 4.10776C2.86566 4.01384 2.77848 3.9239 2.68073 3.84057C2.42712 3.62629 2.12199 3.45435 1.78516 3.42789L4.51944 8.68956C5.96055 8.10361 7.53508 7.77823 9.1849 7.77823C11.0408 7.77823 12.8002 8.05732 14.3827 8.78876Z" fill="black"/>
<path d="M9.49208 25.6994C10.4788 25.6994 11.3506 25.4931 12.1088 25.0817C12.8657 24.6704 13.505 24.095 14.0241 23.3582C14.5432 22.6215 14.9356 21.7498 15.1997 20.7446C15.4639 19.7394 15.596 18.6376 15.596 17.4418C15.596 16.2541 15.4639 15.1668 15.1997 14.1774C14.9356 13.1894 14.5446 12.3376 14.0241 11.622C13.505 10.9064 12.8657 10.3522 12.1088 9.95805C11.3519 9.56389 10.4788 9.36681 9.49208 9.36681C8.48818 9.36681 7.60713 9.56389 6.84893 9.95805C6.09205 10.3522 5.45537 10.9077 4.94021 11.622C4.42505 12.3376 4.03803 13.1894 3.77781 14.1774C3.51759 15.1655 3.38814 16.2541 3.38814 17.4418C3.38814 18.6376 3.51759 19.7394 3.77781 20.7446C4.03803 21.7498 4.42505 22.6215 4.94021 23.3582C5.45537 24.095 6.09205 24.669 6.84893 25.0817C7.60713 25.4931 8.48818 25.6994 9.49208 25.6994ZM9.49208 26.5578C8.15928 26.5578 6.91498 26.3197 5.75918 25.8423C4.60338 25.3661 3.59949 24.7127 2.74618 23.8847C1.89287 23.0567 1.22185 22.0898 0.733109 20.9853C0.244371 19.8796 0 18.6984 0 17.4418C0 16.6178 0.110958 15.8255 0.33155 15.0623C0.552143 14.2991 0.86652 13.5888 1.27336 12.9301C1.6802 12.2714 2.17158 11.6709 2.7475 11.1286C3.32342 10.5863 3.96142 10.1234 4.66282 9.73716C5.36423 9.35093 6.12111 9.05201 6.93479 8.84038C7.74847 8.62742 8.60178 8.52161 9.49339 8.52161C10.385 8.52161 11.2383 8.62742 12.052 8.84038C12.8657 9.05333 13.6252 9.35226 14.3306 9.73716C15.0359 10.1234 15.6753 10.5863 16.2459 11.1286C16.8179 11.6709 17.3092 12.2701 17.72 12.9301C18.1308 13.5902 18.4479 14.3004 18.6685 15.0623C18.889 15.8255 19 16.6178 19 17.4418C19 18.2738 18.889 19.078 18.6685 19.8544C18.4479 20.6309 18.1322 21.357 17.72 22.0329C17.3092 22.7088 16.8179 23.3252 16.2459 23.8794C15.6739 24.4336 15.0359 24.9111 14.3306 25.3092C13.6252 25.7073 12.8657 26.0155 12.052 26.2325C11.237 26.4494 10.385 26.5578 9.49208 26.5578Z" fill="black"/>
</svg>
