<svg width="16" height="22" viewBox="0 0 16 22" fill="none" xmlns="http://www.w3.org/2000/svg">
<path d="M11.9507 6.65274L14.3007 2.19798C14.0208 2.21996 13.7673 2.36175 13.5565 2.5409C13.4753 2.61015 13.4029 2.68489 13.3359 2.76293C13.2613 2.53651 13.0231 2.38373 12.7607 2.44968C12.5928 2.49144 12.4589 2.62883 12.4194 2.797C12.3458 3.11025 12.5818 3.38943 12.8826 3.38943C12.8924 3.38943 12.797 3.58947 12.7212 3.70708C12.4731 4.09177 12.1878 4.33798 11.7772 4.33798C11.2317 4.33798 10.7894 3.89503 10.7894 3.34876C10.7894 3.19049 10.8179 2.94209 10.9299 2.71457C10.9771 2.61784 11.0605 2.53981 11.1626 2.50793C11.3876 2.43869 11.5511 2.22875 11.5511 1.98145C11.5511 1.63852 11.2383 1.36814 10.8827 1.44178C10.6686 1.48574 10.4985 1.6627 10.459 1.87813C10.4359 2.00673 10.4568 2.12763 10.5095 2.23095C10.56 2.32877 10.5797 2.44088 10.5523 2.5486C10.3975 3.14652 9.931 3.60816 9.39864 3.60046C8.44918 3.58617 8.16489 2.84536 8.13635 2.23095C8.27026 2.2936 8.42613 2.31778 8.59077 2.28151C8.88165 2.21886 9.10886 1.97046 9.14399 1.67369C9.19448 1.25932 8.88934 0.904306 8.49309 0.873531C8.49638 0.828466 8.49857 0.783402 8.49857 0.738338C8.49857 0.671291 8.49528 0.606443 8.4876 0.541594C8.40966 -0.180531 7.37458 -0.180531 7.29555 0.541594C7.28897 0.606443 7.28458 0.67239 7.28458 0.738338C7.28458 0.783402 7.28677 0.828466 7.29007 0.873531C6.89382 0.904306 6.58977 1.25932 6.63916 1.67369C6.67538 1.96936 6.9015 2.21886 7.19237 2.28151C7.35702 2.31668 7.51289 2.2936 7.6468 2.23095C7.61826 2.84536 7.33397 3.58617 6.38451 3.60046C5.85215 3.60816 5.38455 3.14652 5.23088 2.5486C5.20344 2.44198 5.2232 2.32987 5.27369 2.23095C5.32638 2.12763 5.34723 2.00673 5.32418 1.87813C5.28467 1.6627 5.11453 1.48574 4.90049 1.44178C4.54485 1.36814 4.23202 1.63852 4.23202 1.98145C4.23202 2.22985 4.39557 2.43869 4.62059 2.50793C4.72267 2.53981 4.80609 2.61784 4.85329 2.71457C4.96525 2.94099 4.99379 3.19049 4.99379 3.34876C4.99379 3.89503 4.55144 4.33798 4.00591 4.33798C3.59539 4.33798 3.31 4.09177 3.06193 3.70708C2.98619 3.58947 2.8907 3.38943 2.90058 3.38943C3.20133 3.38943 3.43733 3.11025 3.36379 2.797C3.32427 2.62883 3.19036 2.49144 3.02242 2.44968C2.76008 2.38483 2.52189 2.53651 2.44725 2.76293C2.38029 2.68489 2.30785 2.61015 2.22663 2.5409C2.01588 2.36285 1.76232 2.21996 1.48242 2.19798L3.75455 6.5703C4.95208 6.08339 6.26047 5.813 7.63143 5.813C9.17362 5.813 10.6357 6.04492 11.9507 6.65274Z" fill="url(#paint0_linear_305_2991)"/>
<path d="M7.88769 20.705C8.70763 20.705 9.43208 20.5335 10.0621 20.1917C10.6911 19.8499 11.2223 19.3718 11.6537 18.7596C12.0851 18.1473 12.4111 17.423 12.6306 16.5877C12.8502 15.7523 12.9599 14.8368 12.9599 13.8432C12.9599 12.8562 12.8502 11.9527 12.6306 11.1305C12.4111 10.3095 12.0862 9.60164 11.6537 9.00701C11.2223 8.41239 10.6911 7.95185 10.0621 7.62431C9.43318 7.29678 8.70763 7.13301 7.88769 7.13301C7.05348 7.13301 6.32135 7.29678 5.6913 7.62431C5.06235 7.95185 4.53328 8.41349 4.1052 9.00701C3.67712 9.60164 3.35551 10.3095 3.13927 11.1305C2.92303 11.9516 2.81546 12.8562 2.81546 13.8432C2.81546 14.8368 2.92303 15.7523 3.13927 16.5877C3.35551 17.423 3.67712 18.1473 4.1052 18.7596C4.53328 19.3718 5.06235 19.8488 5.6913 20.1917C6.32135 20.5335 7.05348 20.705 7.88769 20.705ZM7.88769 21.4183C6.78017 21.4183 5.74618 21.2205 4.78574 20.8237C3.8253 20.428 2.99109 19.8851 2.28201 19.197C1.57293 18.509 1.01533 17.7055 0.609196 16.7877C0.203067 15.8689 0 14.8873 0 13.8432C0 13.1584 0.0922034 12.5 0.27551 11.8658C0.458817 11.2316 0.720058 10.6414 1.05813 10.0941C1.39621 9.54669 1.80453 9.04768 2.28311 8.59704C2.76168 8.1464 3.29185 7.76171 3.8747 7.44076C4.45755 7.11982 5.0865 6.87141 5.76265 6.69555C6.4388 6.51859 7.14788 6.43066 7.88879 6.43066C8.6297 6.43066 9.33878 6.51859 10.0149 6.69555C10.6911 6.87251 11.3222 7.12092 11.9084 7.44076C12.4945 7.76171 13.0258 8.1464 13.5 8.59704C13.9752 9.04768 14.3836 9.54559 14.7249 10.0941C15.0663 10.6425 15.3297 11.2327 15.513 11.8658C15.6964 12.5 15.7886 13.1584 15.7886 13.8432C15.7886 14.5345 15.6964 15.2028 15.513 15.848C15.3297 16.4932 15.0674 17.0966 14.7249 17.6582C14.3836 18.2199 13.9752 18.7321 13.5 19.1926C13.0247 19.6531 12.4945 20.0499 11.9084 20.3808C11.3222 20.7116 10.6911 20.9677 10.0149 21.148C9.33768 21.3282 8.6297 21.4183 7.88769 21.4183Z" fill="url(#paint1_linear_305_2991)"/>
<defs>
<linearGradient id="paint0_linear_305_2991" x1="14.3011" y1="6.65527" x2="7.42922" y2="-3.88071" gradientUnits="userSpaceOnUse">
<stop stop-color="#777777"/>
<stop offset="0.489583" stop-color="#E7E7E7"/>
<stop offset="1" stop-color="#545454"/>
</linearGradient>
<linearGradient id="paint1_linear_305_2991" x1="15.789" y1="21.424" x2="-0.867817" y2="7.46138" gradientUnits="userSpaceOnUse">
<stop stop-color="#777777"/>
<stop offset="0.489583" stop-color="#E7E7E7"/>
<stop offset="1" stop-color="#545454"/>
</linearGradient>
</defs>
</svg>
