<svg width="22" height="22" viewBox="0 0 22 22" fill="none" xmlns="http://www.w3.org/2000/svg">
<path d="M16 1H6C3.23858 1 1 3.23858 1 6V16C1 18.7614 3.23858 21 6 21H16C18.7614 21 21 18.7614 21 16V6C21 3.23858 18.7614 1 16 1Z" stroke="white" stroke-width="2" stroke-linecap="round" stroke-linejoin="round"/>
<path d="M15 10.3698C15.1234 11.2021 14.9813 12.052 14.5938 12.7988C14.2063 13.5456 13.5932 14.1512 12.8416 14.5295C12.0901 14.9077 11.2385 15.0394 10.4078 14.9057C9.57714 14.7721 8.80977 14.3799 8.21485 13.785C7.61993 13.1901 7.22774 12.4227 7.09408 11.592C6.96042 10.7614 7.09208 9.90971 7.47034 9.15819C7.8486 8.40667 8.4542 7.79355 9.201 7.40605C9.9478 7.01856 10.7978 6.8764 11.63 6.99981C12.4789 7.1257 13.2649 7.52128 13.8717 8.12812C14.4785 8.73496 14.8741 9.52089 15 10.3698Z" stroke="white" stroke-width="2" stroke-linecap="round" stroke-linejoin="round"/>
<path d="M16.5 5.5H16.51" stroke="white" stroke-width="2" stroke-linecap="round" stroke-linejoin="round"/>
</svg>
