<svg width="17" height="17" viewBox="0 0 17 17" fill="none" xmlns="http://www.w3.org/2000/svg">
<path d="M15.9995 12.2527V14.5153C16.0004 14.7253 15.9574 14.9332 15.8732 15.1257C15.7891 15.3181 15.6657 15.4909 15.5109 15.6329C15.3561 15.7749 15.1734 15.883 14.9744 15.9503C14.7754 16.0176 14.5646 16.0426 14.3554 16.0237C12.0346 15.7715 9.80532 14.9784 7.84668 13.7083C6.02441 12.5503 4.47945 11.0054 3.3215 9.1831C2.0469 7.21556 1.25368 4.97544 1.00612 2.64422C0.987275 2.43566 1.01206 2.22546 1.0789 2.027C1.14574 1.82855 1.25317 1.64618 1.39436 1.49152C1.53554 1.33686 1.70738 1.21329 1.89893 1.12868C2.09049 1.04407 2.29756 1.00027 2.50697 1.00007H4.76956C5.13558 0.996471 5.49041 1.12608 5.76793 1.36475C6.04546 1.60342 6.22672 1.93486 6.27795 2.29729C6.37345 3.02137 6.55055 3.73232 6.80589 4.41658C6.90736 4.68652 6.92932 4.9799 6.86917 5.26194C6.80902 5.54399 6.66928 5.80288 6.4665 6.00793L5.50867 6.96576C6.58231 8.85393 8.14568 10.4173 10.0338 11.4909L10.9917 10.5331C11.1967 10.3303 11.4556 10.1906 11.7377 10.1304C12.0197 10.0703 12.3131 10.0922 12.583 10.1937C13.2673 10.4491 13.9782 10.6262 14.7023 10.7217C15.0687 10.7733 15.4033 10.9579 15.6424 11.2402C15.8816 11.5224 16.0087 11.8828 15.9995 12.2527Z" stroke="white" stroke-width="1.50839" stroke-linecap="round" stroke-linejoin="round"/>
</svg>
