<svg width="17" height="22" viewBox="0 0 17 22" fill="none" xmlns="http://www.w3.org/2000/svg">
<g opacity="0.5">
<path d="M16 9C16 14.625 8.5 20.25 8.5 20.25C8.5 20.25 1 14.625 1 9C1 7.01088 1.79018 5.10322 3.1967 3.6967C4.60322 2.29018 6.51088 1.5 8.5 1.5C10.4891 1.5 12.3968 2.29018 13.8033 3.6967C15.2098 5.10322 16 7.01088 16 9V9Z" stroke="white" stroke-width="1.875" stroke-linecap="round" stroke-linejoin="round"/>
<path d="M8.5 11.8125C10.0533 11.8125 11.3125 10.5533 11.3125 9C11.3125 7.4467 10.0533 6.1875 8.5 6.1875C6.9467 6.1875 5.6875 7.4467 5.6875 9C5.6875 10.5533 6.9467 11.8125 8.5 11.8125Z" stroke="white" stroke-width="1.875" stroke-linecap="round" stroke-linejoin="round"/>
</g>
</svg>
