<svg width="16" height="17" viewBox="0 0 16 17" fill="none" xmlns="http://www.w3.org/2000/svg">
<path fill-rule="evenodd" clip-rule="evenodd" d="M9 1.30811C9 0.755821 8.55229 0.308105 8 0.308105C7.44772 0.308105 7 0.755821 7 1.30811V7.30469H1C0.447715 7.30469 0 7.7524 0 8.30469C0 8.85697 0.447715 9.30469 1 9.30469H7V15.301C7 15.8533 7.44772 16.301 8 16.301C8.55229 16.301 9 15.8533 9 15.301V9.30469H15C15.5523 9.30469 16 8.85697 16 8.30469C16 7.7524 15.5523 7.30469 15 7.30469H9V1.30811Z" fill="white"/>
</svg>
