<svg width="17" height="14" viewBox="0 0 17 14" fill="none" xmlns="http://www.w3.org/2000/svg">
<path fill-rule="evenodd" clip-rule="evenodd" d="M0.418165 0.0867869C0.736565 -0.0787597 1.12627 -0.00222994 1.35949 0.271645L5.28222 4.87811L7.82909 0.39193C7.96667 0.149595 8.2227 3.92467e-05 8.5 3.92467e-05C8.7773 3.92467e-05 9.03333 0.149595 9.17091 0.39193L11.7178 4.87811L15.6405 0.271645C15.8737 -0.00222994 16.2634 -0.0787597 16.5818 0.0867869C16.9002 0.252334 17.0638 0.616508 16.9769 0.966453L14.6587 10.2998C14.5727 10.646 14.2636 10.8889 13.909 10.8889H3.09096C2.73638 10.8889 2.42731 10.646 2.34131 10.2998L0.0231492 0.966453C-0.0637684 0.616508 0.099765 0.252334 0.418165 0.0867869ZM2.31634 3.78552L3.69428 9.33335H13.3057L14.6837 3.78551L12.1776 6.72841C12.014 6.92045 11.7679 7.02046 11.5178 6.99653C11.2676 6.9726 11.0446 6.82773 10.92 6.60813L8.5 2.34547L6.08003 6.60813C5.95536 6.82773 5.73238 6.9726 5.48222 6.99653C5.23206 7.02046 4.98596 6.92045 4.82243 6.72841L2.31634 3.78552ZM2.31824 13.2222C2.31824 12.7927 2.6642 12.4444 3.09096 12.4444H13.909C14.3358 12.4444 14.6818 12.7927 14.6818 13.2222C14.6818 13.6518 14.3358 14 13.909 14H3.09096C2.6642 14 2.31824 13.6518 2.31824 13.2222Z" fill="url(#paint0_linear_364_5229)"/>
<defs>
<linearGradient id="paint0_linear_364_5229" x1="17.0005" y1="14.0053" x2="1.20785" y2="-1.2543" gradientUnits="userSpaceOnUse">
<stop stop-color="#FE7E07"/>
<stop offset="1" stop-color="#FFDE67"/>
</linearGradient>
</defs>
</svg>
