<svg width="28" height="28" viewBox="0 0 28 28" fill="none" xmlns="http://www.w3.org/2000/svg">
<path d="M24.5 2.33337V9.33337H17.5" stroke="white" stroke-width="2" stroke-linecap="round" stroke-linejoin="round"/>
<path d="M3.5 14C3.50185 11.9738 4.08986 9.9915 5.19313 8.29209C6.2964 6.59267 7.86778 5.24875 9.71776 4.42243C11.5677 3.59611 13.6173 3.32268 15.6192 3.63512C17.6211 3.94757 19.4898 4.83254 21 6.18329L24.5 9.33329" stroke="white" stroke-width="2" stroke-linecap="round" stroke-linejoin="round"/>
<path d="M3.5 25.6666V18.6666H10.5" stroke="white" stroke-width="2" stroke-linecap="round" stroke-linejoin="round"/>
<path d="M24.5 14C24.4982 16.0261 23.9101 18.0085 22.8069 19.7079C21.7036 21.4073 20.1322 22.7512 18.2822 23.5775C16.4323 24.4039 14.3827 24.6773 12.3808 24.3648C10.3789 24.0524 8.51019 23.1674 7 21.8167L3.5 18.6667" stroke="white" stroke-width="2" stroke-linecap="round" stroke-linejoin="round"/>
</svg>
