<svg width="17" height="17" viewBox="0 0 17 17" fill="none" xmlns="http://www.w3.org/2000/svg">
<path fill-rule="evenodd" clip-rule="evenodd" d="M0.250977 1C0.250977 0.586231 0.586403 0.250805 1.00017 0.250805H8.49212C8.69082 0.250805 8.88138 0.329738 9.02188 0.470239L16.0959 7.54422C16.5145 7.96533 16.7494 8.53499 16.7494 9.12877C16.7494 9.72255 16.5145 10.2922 16.0959 10.7133L16.0943 10.7149L10.7151 16.0941L10.7135 16.0957C10.2924 16.5143 9.72272 16.7493 9.12894 16.7493C8.53516 16.7493 7.9655 16.5143 7.54439 16.0957L7.54281 16.0941L0.470411 9.02171C0.329909 8.88121 0.250977 8.69065 0.250977 8.49195V1ZM1.74937 1.7492V8.18162L8.60076 15.033C8.60098 15.0332 8.60053 15.0328 8.60076 15.033C8.74106 15.1721 8.93132 15.2509 9.12894 15.2509C9.32655 15.2509 9.51615 15.1728 9.65646 15.0337C9.65668 15.0335 9.65624 15.0339 9.65646 15.0337L15.0332 9.65695C15.0334 9.65673 15.033 9.65717 15.0332 9.65695C15.1723 9.51665 15.2511 9.32638 15.2511 9.12877C15.2511 8.93115 15.173 8.74155 15.0339 8.60125C15.0336 8.60103 15.0341 8.60147 15.0339 8.60125L8.1818 1.7492H1.74937Z" fill="white"/>
<path fill-rule="evenodd" clip-rule="evenodd" d="M3.99707 4.74598C3.99707 4.33221 4.3325 3.99678 4.74627 3.99678H4.75376C5.16753 3.99678 5.50295 4.33221 5.50295 4.74598C5.50295 5.15974 5.16753 5.49517 4.75376 5.49517H4.74627C4.3325 5.49517 3.99707 5.15974 3.99707 4.74598Z" fill="white"/>
</svg>
